<?xml version="1.0" encoding="UTF-8"?>
<svg width="128pt" height="128pt" version="1.1" viewBox="0 0 128 128" xmlns="http://www.w3.org/2000/svg">
 <path d="m69.082 91.289c4.7539-2.5039 8.0039-7.4961 8.0039-13.23 0-8.2383-6.7031-14.945-14.945-14.945s-14.945 6.7031-14.945 14.945c0 5.7344 3.25 10.727 8.0039 13.23-12.801 3.125-22.324 14.684-22.324 28.434 0 0.70312 0.57031 1.2734 1.2734 1.2734h55.984c0.70313 0 1.2734-0.57031 1.2734-1.2734-0.003906-13.75-9.5352-25.309-22.328-28.434zm-19.336-13.23c0-6.8359 5.5586-12.395 12.395-12.395s12.395 5.5586 12.395 12.395c0 6.8359-5.5586 12.395-12.395 12.395-6.8359 0.003906-12.395-5.5586-12.395-12.395zm-14.297 40.391c0.66406-14.145 12.387-25.445 26.691-25.445s26.02 11.301 26.684 25.445zm10.105-70.926h33.168c0.70312 0 1.2734-0.57031 1.2734-1.2734v-37.977c0-0.70313-0.57031-1.2734-1.2734-1.2734h-33.168c-0.70313 0-1.2734 0.57031-1.2734 1.2734v37.977c0 0.70312 0.57031 1.2734 1.2734 1.2734zm1.2734-37.977h30.621v35.426h-30.621zm8.4297 3.6992c0.5 0.5 0.5 1.3047 0 1.8008l-2.0586 2.0586c-0.23828 0.23828-0.56641 0.375-0.89844 0.375-0.33984 0-0.66016-0.13672-0.89844-0.375l-1.0312-1.0312c-0.5-0.5-0.5-1.3047 0-1.8008 0.5-0.5 1.3047-0.5 1.8008 0l0.12891 0.12891 1.1602-1.1602c0.49609-0.5 1.3047-0.5 1.8008 0zm19.023 18.512c0 0.70313-0.57031 1.2734-1.2734 1.2734h-14.531c-0.70312 0-1.2734-0.57031-1.2734-1.2734 0-0.70312 0.57031-1.2734 1.2734-1.2734h14.531c0.70313 0 1.2734 0.57031 1.2734 1.2734zm0 8.0547c0 0.70312-0.57031 1.2734-1.2734 1.2734h-14.531c-0.70312 0-1.2734-0.57031-1.2734-1.2734s0.57031-1.2734 1.2734-1.2734h14.531c0.70313 0 1.2734 0.57031 1.2734 1.2734zm-19.023-10.453c0.5 0.5 0.5 1.3047 0 1.8008l-2.0586 2.0586c-0.23828 0.23828-0.56641 0.375-0.89844 0.375-0.33984 0-0.66016-0.13672-0.89844-0.375l-1.0312-1.0312c-0.5-0.5-0.5-1.3047 0-1.8008 0.5-0.5 1.3047-0.49609 1.8008 0l0.12891 0.12891 1.1602-1.1602c0.49609-0.5 1.3047-0.5 1.8008 0zm0-8.0547c0.5 0.5 0.5 1.3047 0 1.8008l-2.0586 2.0586c-0.25 0.25-0.57422 0.375-0.89844 0.375s-0.64844-0.125-0.89844-0.375l-1.0312-1.0312c-0.5-0.5-0.5-1.3047 0-1.8008 0.49609-0.5 1.3047-0.5 1.8008 0l0.12891 0.12891 1.1602-1.1602c0.49609-0.5 1.3047-0.5 1.8008 0zm19.023 2.3984c0 0.70312-0.57031 1.2734-1.2734 1.2734l-14.531-0.003906c-0.70312 0-1.2734-0.57031-1.2734-1.2734s0.57031-1.2734 1.2734-1.2734h14.531c0.70313 0.003907 1.2734 0.57422 1.2734 1.2812zm-19.023 13.711c0.5 0.5 0.5 1.3047 0 1.8008l-2.0586 2.0586c-0.25 0.25-0.57422 0.375-0.89844 0.375s-0.64844-0.125-0.89844-0.375l-1.0312-1.0312c-0.5-0.5-0.5-1.3047 0-1.8008 0.49609-0.5 1.3047-0.5 1.8008 0l0.12891 0.12891 1.1602-1.1602c0.49609-0.49609 1.3047-0.5 1.8008 0zm19.023-21.77c0 0.70312-0.57031 1.2734-1.2734 1.2734h-14.531c-0.70312 0-1.2734-0.57031-1.2734-1.2734s0.57031-1.2734 1.2734-1.2734h14.531c0.70313 0 1.2734 0.57422 1.2734 1.2734zm41.949 34.309h-6.625v-2.7031c0-1.9297-1.5703-3.5-3.5-3.5h-7.5391c-1.9297 0-3.5 1.5703-3.5 3.5v2.7031h-6.625c-3.5234 0-6.3945 2.8711-6.3945 6.3945v16.668c0 3.5234 2.8711 6.3945 6.3945 6.3945h27.789c3.5234 0 6.3945-2.8711 6.3945-6.3945l-0.003906-16.668c0-3.5234-2.8633-6.3945-6.3906-6.3945zm-18.613-2.6992c0-0.52344 0.42578-0.94922 0.94922-0.94922h7.5391c0.52344 0 0.94922 0.42578 0.94922 0.94922v2.7031h-9.4414zm18.613 29.609h-27.785c-2.1211 0-3.8438-1.7266-3.8438-3.8438v-8.6406c1.0703 0.80859 2.3984 1.2891 3.8438 1.2891l27.785-0.003907c1.4414 0 2.7734-0.48047 3.8438-1.2891v8.6406c0 2.125-1.7266 3.8516-3.8438 3.8516zm0-13.746h-27.785c-2.1211 0-3.8438-1.7266-3.8438-3.8438v-2.9258c0-2.1211 1.7266-3.8438 3.8438-3.8438h27.785c2.1211 0 3.8438 1.7266 3.8438 3.8438v2.9258c0 2.1211-1.7266 3.8438-3.8438 3.8438zm-76-1.4414c0-9.6094-7.8203-17.43-17.43-17.43-9.6094-0.003906-17.43 7.8164-17.43 17.43 0 9.6094 7.8203 17.43 17.43 17.43s17.43-7.8203 17.43-17.43zm-17.43 14.879c-8.2031 0-14.879-6.6758-14.879-14.879s6.6758-14.879 14.879-14.879 14.879 6.6758 14.879 14.879-6.6758 14.879-14.879 14.879zm1.2734-24.18v9.2891c0 0.33984-0.13672 0.66406-0.375 0.89844-0.23828 0.23828-0.56641 0.375-0.89844 0.375l-8.5781-0.011719c-0.70312 0-1.2734-0.57031-1.2734-1.2734s0.57031-1.2734 1.2734-1.2734l7.3008 0.003906v-8.0156c0-0.70313 0.57031-1.2734 1.2734-1.2734 0.71094 0.003906 1.2812 0.57422 1.2812 1.2812zm58.512-24.719c0.39062-0.58594 1.1797-0.75 1.7656-0.35938 5.0586 3.3398 9.375 7.8594 12.469 13.074 0.35938 0.60547 0.16016 1.3867-0.44531 1.7461-0.20312 0.12109-0.42969 0.17969-0.64844 0.17969-0.43359 0-0.85937-0.22656-1.0938-0.625-2.8984-4.8867-6.9414-9.1211-11.684-12.25-0.58594-0.39062-0.74609-1.1797-0.35938-1.7656zm-55.039 12.547c3.0469-5.0664 7.2461-9.4805 12.16-12.766 0.58594-0.39062 1.375-0.23438 1.7695 0.35156 0.39063 0.58594 0.23438 1.375-0.35156 1.7695-4.6016 3.0781-8.5391 7.2148-11.391 11.961-0.23828 0.39844-0.66016 0.62109-1.0938 0.62109-0.22656 0-0.44922-0.058594-0.65625-0.17969-0.60938-0.37109-0.80469-1.1484-0.44141-1.7539z" fill="#0079ff"/>
</svg>
