<?xml version="1.0" encoding="UTF-8"?>
<svg width="128pt" height="128pt" version="1.1" viewBox="0 0 128 128" xmlns="http://www.w3.org/2000/svg">
 <path d="m9.6719 80.73c-0.71094 0-1.2812 0.57422-1.2812 1.2812 0 0.70312 0.57031 1.2812 1.2812 1.2812h10.969v14.941c0 5.0352 4.0938 9.1289 9.1289 9.1289h14.941v10.969c0 0.70312 0.57031 1.2812 1.2812 1.2812 0.71094 0 1.2812-0.57422 1.2812-1.2812v-10.969h15.449v10.969c0 0.70312 0.57031 1.2812 1.2812 1.2812 0.71094 0 1.2812-0.57422 1.2812-1.2812v-10.969h15.449v10.969c0 0.70312 0.57031 1.2812 1.2812 1.2812s1.2812-0.57422 1.2812-1.2812v-10.969h14.941c5.0352 0 9.1289-4.0938 9.1289-9.1289v-14.941h10.969c0.71094 0 1.2812-0.57422 1.2812-1.2812 0-0.70312-0.57031-1.2812-1.2812-1.2812h-10.969v-15.449h10.969c0.71094 0 1.2812-0.57422 1.2812-1.2812 0-0.70312-0.57031-1.2812-1.2812-1.2812h-10.969v-15.449h10.969c0.71094 0 1.2812-0.57422 1.2812-1.2812 0-0.70312-0.57031-1.2812-1.2812-1.2812h-10.969v-14.941c0-5.0352-4.0938-9.1289-9.1289-9.1289h-14.941v-10.969c0-0.70312-0.57031-1.2812-1.2812-1.2812s-1.2812 0.57422-1.2812 1.2812v10.969h-15.449v-10.969c0-0.70312-0.57031-1.2812-1.2812-1.2812-0.71094 0-1.2812 0.57422-1.2812 1.2812v10.969h-15.449l-0.003907-10.969c0-0.70312-0.57031-1.2812-1.2812-1.2812-0.71094 0-1.2812 0.57422-1.2812 1.2812v10.969h-14.941c-5.0352 0-9.1289 4.0938-9.1289 9.1289v14.941l-10.965-0.003906c-0.71094 0-1.2812 0.57422-1.2812 1.2812 0 0.70312 0.57031 1.2812 1.2812 1.2812h10.969v15.449l-10.969 0.003906c-0.71094 0-1.2812 0.57422-1.2812 1.2812 0 0.70312 0.57031 1.2812 1.2812 1.2812h10.969v15.449zm13.531-50.961c0-3.6211 2.9453-6.5703 6.5703-6.5703h68.461c3.6211 0 6.5703 2.9453 6.5703 6.5703v68.461c0 3.6211-2.9453 6.5703-6.5703 6.5703h-68.461c-3.6211 0-6.5703-2.9453-6.5703-6.5703z" fill="#0079ff"/>
 <path d="m50.398 82.031h27.195c2.4414 0 4.4297-1.9883 4.4297-4.4297v-27.195c0-2.4453-1.9883-4.4297-4.4297-4.4297h-27.195c-2.4414 0-4.4297 1.9883-4.4297 4.4297v27.195c0 2.4453 1.9883 4.4297 4.4297 4.4297zm-1.8711-31.629c0-1.0312 0.83984-1.8711 1.8711-1.8711h27.195c1.0312 0 1.8711 0.83984 1.8711 1.8711v27.195c0 1.0312-0.83984 1.8711-1.8711 1.8711h-27.195c-1.0312 0-1.8711-0.83984-1.8711-1.8711z" fill="#0079ff"/>
</svg>
