<?xml version="1.0" encoding="UTF-8"?>
<svg width="128pt" height="128pt" version="1.1" viewBox="0 0 128 128" xmlns="http://www.w3.org/2000/svg">
 <path d="m103.02 97.844 0.050781-0.10547c0.41016-0.67578 1.2695-0.93359 1.9844-0.58594 0.71484 0.34375 1.0469 1.1758 0.76953 1.918l-0.050781 0.10547c-0.41016 0.67969-1.2734 0.93359-1.9883 0.58984-0.71094-0.34766-1.043-1.1836-0.76562-1.9258zm-2.918-70.438v29.121l1.0547-0.46484c2.1602-0.94531 4.6836 0.035156 5.6367 2.1914l2.5469 5.7891c0.94922 2.1641-0.03125 4.6836-2.1914 5.6406l-7.0469 3.1016v17.281c0.75-0.16797 1.5352-0.074218 2.2227 0.26562l9.457 4.6445c1.6914 0.83203 2.3867 2.875 1.5586 4.5664l-9.8398 20.039c-0.39844 0.8125-1.1016 1.4336-1.9609 1.7266-0.85547 0.29297-1.793 0.23047-2.6055-0.16797l-9.4492-4.6406v0.003906c-1.5195-0.75391-2.2617-2.5078-1.7344-4.1211h-72.164c-0.85156 0-1.5391-0.6875-1.5391-1.5352v-92.852c0.007812-6.3398 5.1484-11.48 11.488-11.488h80.945c0.28516 0 0.5625 0.082032 0.80469 0.23438 3.9688 0.67969 6.8203 4.1953 6.668 8.2227v10.91c0 0.84766-0.68359 1.5352-1.5312 1.5391zm5.3984-17.785c-1.4492-0.085938-2.8672 0.44531-3.8945 1.4648-1.0312 1.0195-1.5781 2.4297-1.5039 3.8789v9.3828h10.789v-9.3828h-0.003907c0.074219-1.4453-0.46875-2.8555-1.5-3.875-1.0273-1.0195-2.4414-1.5547-3.8867-1.4688zm-30.836 80.465c1.6367 9.6445 1.6953 9.9727 14.867 18.586l7.2188-14.707c-1.6367-1.0391-2.9102-2.5586-3.6445-4.3516l-3.9375-12.016-6.8164 3 2.75 11.613h-0.003906c0.12109 0.78906-0.38672 1.5352-1.1641 1.7227-0.77734 0.18359-1.5625-0.25781-1.8125-1.0156l-3.3711-14.246c-0.38281-1.6562-2.0156-2.7031-3.6836-2.3594-1.6562 0.375-2.6992 2.0195-2.3398 3.6797 0.94141 4.2227 1.4961 7.4766 1.9375 10.094zm25.848 3.1562-9.8398 20.043c-0.082031 0.17578-0.011719 0.38281 0.16406 0.47266l9.4453 4.6406c0.17578 0.082031 0.38281 0.011718 0.47266-0.16016l9.8438-20.047c0.082031-0.17578 0.011719-0.38281-0.16016-0.47266l-9.4531-4.6367c-0.046875-0.023437-0.10156-0.035156-0.15234-0.035156-0.13281 0-0.25781 0.074219-0.32031 0.19531zm-3.4688-19.109-5.0625 2.2266 4.0312 12.289c0.23438 0.58594 0.58594 1.1211 1.0312 1.5664zm2.1289-13.844-17.453 7.6797h-0.007813l-16.867 7.4219 3.5273 8.0156 1.793-0.78906c-0.12891-0.63281-0.27344-1.2812-0.42188-1.9648v0.003906c-0.73047-3.3125 1.3555-6.5859 4.6602-7.332 3.1484-0.67188 6.2812 1.1758 7.2227 4.25l16.352-7.1953 7.9375-3.4961h-0.003906c0.61719-0.26562 0.90234-0.98437 0.63672-1.6016l-2.5469-5.7852-0.003906-0.003906c-0.26953-0.61328-0.98828-0.89453-1.6016-0.62109zm-48.734-16.051h-22.438v18.609h9.2617c4.1797-1.707 8.8164-1.957 13.152-0.70312zm-17.5 25.109c-3.6641 3.6641-5.4375 8.8125-4.8086 13.953 0.62891 5.1445 3.5859 9.7109 8.0234 12.387s9.8555 3.1602 14.699 1.3164c4.8398-1.8438 8.5664-5.8125 10.098-10.762l-5.5664-0.60938c-0.54688-0.058593-1.0156-0.40625-1.2383-0.90625-0.21875-0.50391-0.15234-1.0859 0.16797-1.5273l3.5859-4.8828c0.011719-0.019531 0.027344-0.035156 0.039063-0.050781l2.5781-3.2188h0.003906c-1.6719-4.1992-4.9531-7.5586-9.1133-9.3203-0.042969-0.015624-0.085938-0.035156-0.12891-0.054687v0.003906c-4.1992-1.7227-8.9102-1.6875-13.082 0.097657l-0.019531 0.007812c-1.957 0.84766-3.7344 2.0586-5.2383 3.5664zm32.184 14.27-2.6797-6.082-2.0977 2.6211-1.9961 2.7188zm3.6445-13.293 8.625-3.7969-1.6445-0.73438c-1.7734-0.78516-3.457-1.5273-4.9531-2.3047-0.77344-0.52344-1.7383-0.68359-2.6445-0.44141-0.90234 0.24219-1.6562 0.86719-2.0664 1.707-0.49219 0.93359-0.5625 2.0352-0.19531 3.0234 0.37109 0.99219 1.1445 1.7773 2.1328 2.1562zm28.281-12.449-0.003907-42.91c-0.046874-1.957 0.59375-3.8672 1.8125-5.3945h-73.312c-4.6523 0.003907-8.4219 3.7734-8.4297 8.4258v91.324h67.84c-4.8125-3.1992-7.6992-5.3555-9.5352-7.6133-2.3867-2.9336-2.8789-5.8359-3.7734-11.109-0.24219-1.4258-0.51172-3.043-0.86719-4.9023l-2.5469 1.1211h-0.003906c-0.19922 0.089844-0.41797 0.14062-0.63672 0.14062h-0.12891-0.039062l-3.375-0.37109h-0.003907c-1.6484 5.9492-5.9648 10.801-11.684 13.129-5.7227 2.3242-12.195 1.8672-17.531-1.2422-5.3359-3.1094-8.9258-8.5195-9.7188-14.645-0.79297-6.1211 1.2969-12.27 5.6641-16.633 0.44922-0.45312 0.92188-0.875 1.4062-1.2812h-5.707c-0.84766 0-1.5352-0.6875-1.5352-1.5352v-21.672c0-0.84766 0.6875-1.5352 1.5352-1.5352h25.492c0.40625 0 0.79297 0.16016 1.082 0.44922 0.28516 0.28906 0.44922 0.67969 0.44531 1.0859l-0.015625 20.602c4.1602 2.0117 7.4961 5.3984 9.4453 9.5859l2.4023-1.0586c-2.6875-1.9414-3.5273-5.5742-1.9609-8.5 0.78906-1.5547 2.1914-2.7148 3.8672-3.1992 1.6758-0.48828 3.4766-0.25391 4.9766 0.64062 1.4062 0.73828 3.043 1.4609 4.7734 2.2227 1.3633 0.60156 2.7617 1.2227 4.1367 1.8867zm-7.8281-34.312v9.6914c0 0.84766-0.6875 1.5352-1.5352 1.5352h-61.215c-0.84766 0-1.5352-0.6875-1.5352-1.5352v-9.6914c0-0.85156 0.6875-1.5391 1.5352-1.5391h61.215c0.40625 0 0.79687 0.16406 1.0859 0.45312 0.28906 0.28516 0.44922 0.67578 0.44922 1.0859zm-3.0586 1.5352h-58.16v6.6328h58.156zm1.5312 25.215h-28.262c-0.79297 0.070312-1.4023 0.73438-1.4023 1.5312s0.60937 1.4609 1.4023 1.5312h28.254c0.79297-0.070312 1.4023-0.73438 1.4023-1.5312s-0.60938-1.4609-1.4023-1.5312zm0-9.1328h-4.3906c-0.42969-0.035157-0.85156 0.10937-1.1719 0.39844-0.31641 0.29297-0.49609 0.70312-0.49609 1.1328 0 0.42969 0.17969 0.83984 0.49609 1.1328 0.32031 0.28906 0.74219 0.43359 1.1719 0.39844h4.3828c0.42969 0.035156 0.85547-0.10938 1.1719-0.39844 0.31641-0.29297 0.49609-0.70312 0.49609-1.1328 0-0.42969-0.17969-0.83984-0.49609-1.1328-0.31641-0.28906-0.74219-0.43359-1.1719-0.39844zm-28.262 3.0586h17.867c0.42969 0.035157 0.85156-0.10547 1.1719-0.39844 0.31641-0.28906 0.49609-0.70312 0.49609-1.1328 0-0.42969-0.17969-0.83984-0.49609-1.1328-0.32031-0.28906-0.74219-0.43359-1.1719-0.39844h-17.867c-0.79297 0.070313-1.4023 0.73438-1.4023 1.5312s0.60937 1.4609 1.4023 1.5312zm-22.586 38.527 5.7617 4.5312c0.64063 0.50391 1.5664 0.41406 2.1016-0.19922l8.3594-9.6562c0.46875-0.64844 0.36719-1.543-0.23828-2.0664-0.60156-0.51953-1.5039-0.49609-2.0742 0.0625l-7.4023 8.5508-4.6133-3.6328c-0.66797-0.4375-1.5586-0.29297-2.0547 0.33203-0.49219 0.62891-0.42188 1.5273 0.16016 2.0742z" fill="#0079ff"/>
</svg>
