<?xml version="1.0" encoding="UTF-8"?>
<svg width="128pt" height="128pt" version="1.1" viewBox="0 0 128 128" xmlns="http://www.w3.org/2000/svg">
 <path d="m104 10h-80c-7.7188 0-14 6.2812-14 14v68c0 9.9258 8.0742 18 18 18h72c9.9258 0 18-8.0742 18-18v-68c0-7.7188-6.2812-14-14-14zm10 82c0 7.7188-6.2812 14-14 14h-72c-7.7188 0-14-6.2812-14-14v-68c0-5.5156 4.4844-10 10-10h80c5.5156 0 10 4.4844 10 10zm-14-66h-72c-1.1055 0-2 0.89453-2 2v64c0 1.1055 0.89453 2 2 2h72c1.1055 0 2-0.89453 2-2v-64c0-1.1055-0.89453-2-2-2zm-2 64h-68v-60h68zm-52-20c5.5156 0 10-4.4844 10-10s-4.4844-10-10-10-10 4.4844-10 10 4.4844 10 10 10zm0-16c3.3086 0 6 2.6914 6 6s-2.6914 6-6 6-6-2.6914-6-6 2.6914-6 6-6zm24-6c0-1.1055 0.89453-2 2-2h16c1.1055 0 2 0.89453 2 2s-0.89453 2-2 2h-16c-1.1055 0-2-0.89453-2-2zm0 12c0-1.1055 0.89453-2 2-2h16c1.1055 0 2 0.89453 2 2s-0.89453 2-2 2h-16c-1.1055 0-2-0.89453-2-2zm0 12c0-1.1055 0.89453-2 2-2h16c1.1055 0 2 0.89453 2 2s-0.89453 2-2 2h-16c-1.1055 0-2-0.89453-2-2zm-24 44c0 1.1055-0.89453 2-2 2h-16c-1.1055 0-2-0.89453-2-2s0.89453-2 2-2h16c1.1055 0 2 0.89453 2 2zm56 0c0 1.1055-0.89453 2-2 2h-16c-1.1055 0-2-0.89453-2-2s0.89453-2 2-2h16c1.1055 0 2 0.89453 2 2z" fill="#0079ff"/>
</svg>
