<?xml version="1.0" encoding="UTF-8"?>
<svg width="128pt" height="128pt" version="1.1" viewBox="0 0 128 128" xmlns="http://www.w3.org/2000/svg">
 <path d="m79.734 49.605h0.39453v-4.5703c0-8.8906-7.2344-16.125-16.129-16.125-8.8906 0-16.129 7.2344-16.129 16.125v4.8789c-1.9453 1.4766-3.2266 3.7852-3.2266 6.4102v16.129c0 4.4492 3.6133 8.0664 8.0664 8.0664h22.582c4.4492 0 8.0664-3.6133 8.0664-8.0664v-16.129c0-2.8047-1.4414-5.2734-3.6211-6.7188zm-28.637-4.5742c0-7.1133 5.7852-12.898 12.898-12.898 7.1133 0 12.898 5.7852 12.898 12.898v3.3906c-0.53125-0.10938-1.0703-0.16406-1.6094-0.16406h-22.582c-0.55469 0-1.0898 0.054688-1.6133 0.16406v-3.3906zm29.031 27.422c0 2.6719-2.1719 4.8398-4.8398 4.8398h-22.582c-2.6719 0-4.8398-2.1719-4.8398-4.8398v-16.129c0-2.6719 2.1719-4.8398 4.8398-4.8398h22.582c2.6719 0 4.8398 2.1719 4.8398 4.8398zm-12.898-10.75c0 1.1797-0.66406 2.1719-1.6133 2.7305v6.9453h-3.2266v-6.9453c-0.94531-0.56641-1.6133-1.5508-1.6133-2.7305 0-1.7812 1.4453-3.2266 3.2266-3.2266s3.2266 1.4453 3.2266 3.2266zm46.316-46.391-48.441-8.8086c-0.73047-0.13672-1.4805-0.13672-2.2148 0l-48.434 8.8086c-3.0586 0.55469-5.2383 3.3203-5.0664 6.4297l3 53.941c0 0.79688 0.54688 19.812 47.801 44.98 1.1758 0.625 2.4883 0.94141 3.8086 0.94141 1.3164 0 2.6367-0.30859 3.8086-0.94141 47.25-25.164 47.801-44.188 47.797-44.895l3-54.031c0.17578-3.1094-2.0039-5.875-5.0664-6.4258zm-1.1602 60.344c-0.003907 0.17969-0.94531 18.113-46.094 42.156-1.4102 0.75391-3.1719 0.75391-4.5781 0-45.148-24.039-46.09-41.969-46.102-42.219l-3-54.035c-0.078125-1.4844 0.96094-2.8086 2.4258-3.0742l48.43-8.8047c0.17578-0.03125 0.35547-0.050782 0.53125-0.050782 0.17969 0 0.35547 0.015625 0.53125 0.046875l48.441 8.8086c1.4648 0.26562 2.5039 1.5859 2.4219 3.0742z" fill="#0079ff"/>
</svg>
