<?xml version="1.0" encoding="UTF-8"?>
<svg width="128pt" height="128pt" version="1.1" viewBox="0 0 128 128" xmlns="http://www.w3.org/2000/svg">
 <path d="m51.984 120.57c-0.21094 0.76953-0.91016 1.3086-1.7031 1.3086-0.16016 0-0.31641-0.019531-0.46484-0.058594-15.039-4.0781-27.945-13.773-36.043-27.09-8.1016-13.316-10.781-29.234-7.4844-44.465l-2.1641 1.0664h-0.003906c-0.875 0.43359-1.9414 0.074219-2.375-0.80469-0.21094-0.42188-0.23828-0.89844-0.09375-1.3438 0.14844-0.44531 0.46875-0.80859 0.89062-1.0156l6.2109-3.0508v-0.003906c0.44922-0.21875 0.97656-0.23828 1.4414-0.054687 0.46484 0.18359 0.82813 0.56641 1 1.0352l2.4219 6.625c0.33594 0.91406-0.13672 1.9336-1.0547 2.2695-0.91406 0.33594-1.9336-0.13672-2.2695-1.0547l-0.73047-1.9883c-2.8281 14.234-0.15625 29.016 7.4883 41.352 7.6445 12.34 19.691 21.309 33.695 25.109 0.94531 0.25391 1.5039 1.2266 1.25 2.1719zm74.461-57.418c0-5.2539-0.67578-10.488-2.0195-15.574-0.25-0.94531-1.2148-1.5039-2.1602-1.2539s-1.5117 1.2148-1.2617 2.1602c3.7188 14.078 1.9414 29.051-4.9844 41.863-6.9219 12.809-18.461 22.512-32.281 27.117l1.3047-1.7188c0.55078-0.78125 0.37891-1.8555-0.37891-2.4297-0.76172-0.57422-1.8359-0.44531-2.4414 0.29688l-4.2656 5.6211c-0.30469 0.39844-0.42188 0.91016-0.32422 1.4062 0.09375 0.48828 0.39453 0.92188 0.82422 1.1797l5.9258 3.5703c0.39844 0.25391 0.89063 0.33984 1.3555 0.23047 0.46484-0.10938 0.87109-0.40625 1.1133-0.80859 0.24609-0.41016 0.31641-0.90625 0.19531-1.3633-0.12109-0.46094-0.42578-0.85547-0.83984-1.0898l-2.1133-1.2812c12.285-3.9258 23.004-11.645 30.613-22.055 7.6094-10.406 11.719-22.965 11.734-35.859zm-102.52-39.914c0.47656 0.003906 0.92578-0.18359 1.2539-0.51562 10.266-10.285 24.059-16.281 38.582-16.766 14.527-0.48438 28.684 4.5703 39.613 14.145l-1.6055-0.28516h0.003907c-0.96484-0.16406-1.8789 0.47656-2.0508 1.4414-0.16406 0.96094 0.47656 1.8789 1.4414 2.0469l6.9453 1.2148v0.003906c0.10156 0.015625 0.20312 0.023438 0.30469 0.023438 0.92969 0 1.6992-0.71484 1.7656-1.6406l0.46094-6.8984v-0.003906c0.066406-0.97656-0.67578-1.8164-1.6484-1.8789-0.97656-0.066406-1.8164 0.67188-1.8789 1.6445l-0.18359 2.7734c-11.535-10.664-26.754-16.449-42.465-16.141-15.711 0.31641-30.684 6.7031-41.785 17.824-0.50391 0.50391-0.66016 1.2656-0.38672 1.9258 0.27344 0.66406 0.92188 1.0938 1.6367 1.0938zm54.324 72.031c-2.3281 0.85547-4.7461 1.4531-7.2031 1.7891-0.99609 0.10937-1.875 0.71094-2.3398 1.6016l-1.8867 3.3906h-0.003906c-1.1484 2.1289-3.3789 3.4609-5.8008 3.4609-0.60547 0-1.2109-0.078124-1.7969-0.23828l-8.7031-2.3281c-2.9883-0.76953-5.0508-3.5-4.9648-6.5859l0.070313-4.4688c0.035156-0.96484-0.39062-1.8867-1.1406-2.4844-1.8984-1.5898-3.625-3.3867-5.1445-5.3516-0.59375-0.80469-1.5547-1.2695-2.5586-1.2305l-3.8906 0.066407h-0.11328c-3.0391 0.023437-5.7031-2.0234-6.4609-4.9688l-2.3281-8.7031c-0.82812-2.9766 0.50391-6.125 3.2148-7.5938l3.9141-2.1758c0.85156-0.44922 1.4336-1.2734 1.5781-2.2266 0.17578-1.0039 0.39844-2.0156 0.66406-3 0.375-1.4062 0.83984-2.7891 1.3906-4.1367 0.39844-0.92188 0.32031-1.9805-0.21484-2.8281l-1.9883-3.3359c-1.6133-2.6289-1.1953-6.0234 1.0117-8.1836l6.3711-6.3711c2.1602-2.2031 5.5586-2.625 8.1914-1.0117l3.8398 2.3008c0.81641 0.51172 1.8203 0.60547 2.7148 0.25391 2.3281-0.85547 4.7461-1.4531 7.1992-1.7891 1-0.10938 1.875-0.71094 2.3438-1.6016l1.8867-3.3906v-0.003906c1.4688-2.7109 4.625-4.0469 7.5938-3.2148l8.7031 2.3281c2.9883 0.76953 5.0508 3.5 4.9688 6.5859l-0.070313 4.4688v0.003907c-0.039063 0.96094 0.38672 1.8789 1.1367 2.4766 1.9062 1.5938 3.6289 3.3906 5.1445 5.3516 0.59375 0.81641 1.5547 1.2734 2.5586 1.2344l3.8945-0.066407c3.0781-0.078124 5.8164 1.9805 6.5859 4.9688l2.3281 8.7031c0.82813 2.9688-0.50391 6.125-3.2188 7.5938l-3.9102 2.1758c-0.85156 0.44922-1.4336 1.2734-1.5781 2.2266-0.42969 2.4453-1.125 4.8398-2.0664 7.1406-0.39844 0.92188-0.32031 1.9766 0.21484 2.8242l2 3.3359h-0.003907c1.6133 2.6289 1.1953 6.0234-1.0117 8.1836l-6.3711 6.3711v0.003906c-2.1602 2.2031-5.5586 2.625-8.1914 1.0117l-3.8398-2.3008c-0.81641-0.51562-1.8242-0.60938-2.7188-0.26172zm-1.2188-3.3203c1.8984-0.71875 4.0234-0.51953 5.7617 0.53906l3.8398 2.3008c1.2383 0.76172 2.8438 0.55859 3.8633-0.48047l6.3711-6.3711c1.0391-1.0195 1.2344-2.625 0.47656-3.8633l-1.9883-3.3359c-1.1055-1.8047-1.2734-4.0312-0.45312-5.9844 0.84375-2.0586 1.4648-4.2031 1.8516-6.3984 0.32812-2 1.5664-3.7344 3.3438-4.7031l3.9141-2.1758c1.2812-0.69531 1.9102-2.1836 1.5195-3.5898l-2.3281-8.7031-0.003906 0.003906c-0.36328-1.4102-1.6484-2.3867-3.1094-2.3438l-3.8945 0.058594h0.003907c-2.1211 0.054687-4.1406-0.91406-5.4141-2.6094-1.3594-1.7617-2.9062-3.3633-4.6133-4.7969-1.5664-1.2852-2.4492-3.2266-2.3984-5.25l0.074218-4.4688-0.003906-0.003907c0.035156-1.4531-0.93359-2.7461-2.3438-3.1094l-8.7031-2.3281c-1.4062-0.39062-2.8906 0.23828-3.5859 1.5195l-1.8945 3.3867c-1.0117 1.8633-2.8555 3.125-4.9609 3.3867-2.2031 0.30078-4.3711 0.83984-6.4609 1.6055-1.8984 0.71875-4.0234 0.51953-5.7539-0.53906l-3.8398-2.3008c-1.2461-0.76172-2.8438-0.56641-3.8633 0.47656l-6.3711 6.3711v0.003907c-1.0391 1.0195-1.2383 2.6211-0.48047 3.8633l1.9883 3.3359c1.1094 1.8047 1.2734 4.0312 0.45312 5.9844-0.49609 1.2109-0.91406 2.4492-1.25 3.7109-0.23438 0.88672-0.43359 1.7891-0.59375 2.6914-0.32812 2.0039-1.5664 3.7383-3.3438 4.7109l-3.9102 2.1758c-1.2812 0.69922-1.9102 2.1836-1.5195 3.5898l2.3281 8.7031c0.36328 1.4102 1.6562 2.3789 3.1094 2.3438l3.8906-0.066406h0.12109c2.0781-0.019531 4.0469 0.94922 5.2969 2.6094 1.3594 1.7617 2.9102 3.3711 4.6133 4.8008 1.5664 1.2852 2.4531 3.2266 2.4062 5.25l-0.074219 4.4688c-0.035156 1.4531 0.94141 2.7461 2.3516 3.1094l8.7031 2.3281h-0.003906c1.4062 0.39453 2.8945-0.23437 3.5898-1.5156l1.8867-3.3945c1.0117-1.8633 2.8594-3.125 4.9609-3.3867 2.2031-0.30078 4.3711-0.83984 6.4609-1.6055zm-10.578-4.5391v-0.003906c-6.8203 0-13.324-2.8594-17.93-7.8906-4.6055-5.0234-6.8906-11.754-6.2969-18.551 0.59375-6.7891 4.0156-13.02 9.4258-17.176 5.4062-4.1484 12.309-5.8398 19.023-4.6562 6.7148 1.1836 12.625 5.1367 16.289 10.887 3.6602 5.75 4.7461 12.773 2.9805 19.359-1.375 5.1797-4.4297 9.7539-8.6797 13.016s-9.4609 5.0234-14.816 5.0117zm20.074-18.945c1.5039-5.625 0.57422-11.621-2.5508-16.523-3.1289-4.9102-8.1758-8.2734-13.91-9.2852-5.7305-1.0117-11.625 0.42969-16.242 3.9766-4.6211 3.5391-7.5352 8.8594-8.0469 14.66-0.51172 5.7969 1.4414 11.539 5.3711 15.836 3.9297 4.2891 9.4805 6.7383 15.301 6.7383 4.5742 0 9.0195-1.5117 12.648-4.2969s6.2383-6.6914 7.4258-11.105zm-14.43-7.9102c-1.5664 1.7266-1.6445 3.1289-0.26562 4.7656 2.8281 1.7969 4.3945 5.0391 4.0352 8.3711 0.94922 0.054688 1.6914 0.85547 1.6719 1.8047-0.019531 0.95312-0.79687 1.7188-1.75 1.7305h-18.914c-0.97656 0.019532-1.7852-0.75391-1.8047-1.7305-0.019531-0.97656 0.75391-1.7852 1.7344-1.8047-0.35547-3.3281 1.2031-6.5703 4.0234-8.3711 1.375-1.6406 1.2969-3.0391-0.26562-4.7656-2.5859-2.0938-4.0352-5.2734-3.9219-8.6016-0.92578-0.12109-1.5938-0.94141-1.5312-1.8711 0.058594-0.92578 0.82812-1.6484 1.7617-1.6484h18.914c0.93359-0.003907 1.7148 0.71484 1.7734 1.6484 0.058594 0.92969-0.61328 1.75-1.5391 1.8711 0.10938 3.3242-1.3398 6.5039-3.9258 8.6016zm-2.5-2.5117c0.066406-0.070312 0.14062-0.13672 0.21484-0.19531 1.7734-1.4219 2.7695-3.6055 2.6719-5.8789h-12.305c-0.10156 2.2734 0.89062 4.4609 2.6641 5.8789 0.078125 0.058594 0.14844 0.125 0.21484 0.19531 2.9609 3.1797 3.0586 6.6562 0.27344 9.7852-0.10156 0.11328-0.21875 0.21484-0.34375 0.30078-1.9688 1.1055-3.0234 3.3281-2.6445 5.5508h11.977c0.38672-2.2188-0.67578-4.4453-2.6445-5.5469-0.12891-0.085937-0.24609-0.18359-0.35156-0.30078-2.7812-3.1367-2.6836-6.6094 0.27344-9.7891z" fill="#0079ff"/>
</svg>
