<?xml version="1.0" encoding="UTF-8"?>
<svg width="128pt" height="128pt" version="1.1" viewBox="0 0 128 128" xmlns="http://www.w3.org/2000/svg">
 <path d="m106.28 22.215c2.6562 5.5664-1.0586 11.297-4.0859 15.121-2.1367 2.6992-2.6758 3.8516-2.7539 5.8711-0.039062 0.94531-0.81641 1.6914-1.7617 1.6914h-0.070313c-0.46875-0.015626-0.91016-0.21875-1.2266-0.56641-0.32031-0.33984-0.48437-0.79688-0.46875-1.2656 0.12109-3.1094 1.2305-5.0352 3.5156-7.9219 3.9336-4.9688 5.0664-8.4883 3.6719-11.41-1.1641-2.3281-3.6914-3.6484-6.2656-3.2812-3.2383 0.32031-5.8984 2.6953-6.5898 5.875-0.23047 0.94531-1.1836 1.5234-2.1289 1.2891-0.94531-0.23047-1.5234-1.1836-1.2969-2.1289 1.0586-4.6211 4.9414-8.0547 9.6562-8.5469 4.0586-0.51953 8 1.6016 9.8047 5.2695zm-8.1797 27.68c-0.97656 0-1.7656 0.78906-1.7656 1.7617v0.39062c-0.011719 0.47656 0.17187 0.93359 0.5 1.2812 0.32812 0.33984 0.78906 0.53516 1.2656 0.53516 0.47656 0 0.92969-0.19531 1.2656-0.53516 0.32812-0.34375 0.51172-0.80469 0.5-1.2812v-0.39062c-0.003907-0.96875-0.78906-1.7617-1.7656-1.7617zm-27.539 38.234v22.52c-0.003906 6.1992-5.0352 11.227-11.234 11.227h-46.297c-6.1992 0-11.227-5.0234-11.23-11.227v-22.52c0-6.2031 5.0312-11.234 11.234-11.234h8.3242c3.9609-0.039062 7.5352 2.3555 9.0039 6.0312l0.17578 0.42578c0.91406 2.3516 3.1953 3.8789 5.7148 3.8398h0.035156c2.5039 0.050782 4.7852-1.4609 5.7148-3.7891l0.23828-0.55859v-0.003906c1.4961-3.625 5.0469-5.9805 8.9688-5.9414h8.125c6.1992 0.003906 11.219 5.0352 11.219 11.234zm-3.5234 0c-0.003906-4.25-3.4492-7.6953-7.7031-7.6992h-8.125c-2.5039-0.046876-4.7852 1.4609-5.7188 3.7891l-0.23828 0.57031c-1.4883 3.625-5.0391 5.9805-8.9609 5.9453h-0.050781c-3.9414 0.019531-7.4961-2.3711-8.9609-6.0312l-0.17578-0.42578h0.003906c-0.92578-2.3594-3.2148-3.8906-5.7461-3.8398h-8.3281c-4.2539 0-7.6992 3.4492-7.7031 7.6992v22.512c0.003907 4.25 3.4492 7.6914 7.7031 7.6953h46.301c4.25-0.003906 7.6953-3.4453 7.7031-7.6953zm-51.164-35.754c0-5.3867 2.1406-10.555 5.9453-14.367 3.8086-3.8047 8.9805-5.9453 14.367-5.9453 5.3867-0.003906 10.555 2.1367 14.359 5.9453 3.8086 3.8086 5.9492 8.9766 5.9492 14.367 0 5.3867-2.1406 10.551-5.9492 14.359s-8.9766 5.9492-14.359 5.9492c-5.3867-0.011719-10.547-2.1484-14.355-5.9609-3.8047-3.8047-5.9492-8.9648-5.9531-14.352zm3.5234 0c0 6.7891 4.0898 12.906 10.359 15.504 6.2695 2.5938 13.488 1.1602 18.289-3.6406s6.2344-12.016 3.6367-18.289c-2.5938-6.2695-8.7148-10.355-15.504-10.355-9.2617 0.011719-16.77 7.5156-16.781 16.781zm106.81-17.023c-0.003906 9.6992-4.8242 18.77-12.867 24.203-8.0391 5.4336-18.25 6.5234-27.254 2.9102-3.5586 1.6836-7.2969 2.9805-11.137 3.8516-1.1016 0.29688-2.1406 0.57031-3.0938 0.85547v-0.003906c-0.69141 0.20312-1.4102 0.31641-2.1289 0.32031-1.4609 0.015625-2.875-0.48828-4-1.4258-2.2305-1.8516-3.0352-4.3711-2.0469-6.4141 0.95312-1.9688 1.9258-4.5039 2.8594-6.9492 1.0391-2.7148 2.0312-5.2969 3.0195-7.2266-2.9883-8.1133-2.2305-17.141 2.0703-24.641 4.3008-7.5039 11.699-12.715 20.215-14.234 8.5156-1.5195 17.266 0.80859 23.895 6.3594 6.6289 5.5508 10.461 13.754 10.465 22.398zm-3.5234 0c-0.003906-7.6719-3.4297-14.934-9.3438-19.812-5.9141-4.8789-13.699-6.8594-21.23-5.4062-7.5234 1.4531-14.008 6.1953-17.68 12.93-3.6758 6.7305-4.1445 14.75-1.2891 21.863 0.19922 0.5 0.16016 1.0586-0.10547 1.5312-1.2266 2.4258-2.2891 4.9297-3.1992 7.4883-0.96484 2.5195-1.9609 5.1211-2.9844 7.2305-0.28516 0.57031 0.375 1.5469 1.125 2.1719v-0.003906c0.82031 0.64062 1.9141 0.80469 2.8906 0.44141 0.99609-0.28516 2.0508-0.57031 3.1719-0.87109 3.8398-1.0234 8.1914-2.1914 11.004-3.9102 0.48828-0.30078 1.1016-0.34375 1.625-0.10938 7.9492 3.4766 17.113 2.7109 24.375-2.0352s11.637-12.836 11.641-21.504z" fill="#0079ff"/>
</svg>
