<?xml version="1.0" encoding="UTF-8"?>
<svg width="128pt" height="128pt" version="1.1" viewBox="0 0 128 128" xmlns="http://www.w3.org/2000/svg">
 <path d="m90.066 28.039h-52.133c-1.6875 0.003907-3.0547 1.3711-3.0586 3.0586v65.805c0.003906 1.6875 1.3711 3.0547 3.0586 3.0586h52.133c1.6875-0.003907 3.0547-1.3711 3.0586-3.0586v-65.805c-0.003906-1.6875-1.3711-3.0547-3.0586-3.0586zm0.96875 68.863c0 0.53516-0.43359 0.96875-0.96875 0.96875h-52.133c-0.53516 0-0.96875-0.43359-0.96875-0.96875v-65.805c0-0.53516 0.43359-0.96875 0.96875-0.96875h52.133c0.53516 0 0.96875 0.43359 0.96875 0.96875zm-7.3398-57.137c0 0.57422-0.46484 1.043-1.043 1.043h-19.473c-0.57813 0-1.043-0.46875-1.043-1.043 0-0.57812 0.46484-1.0469 1.043-1.0469h19.473c0.27734 0 0.54297 0.11328 0.73828 0.30859 0.19531 0.19531 0.30469 0.46094 0.30469 0.73828zm0 7.1133v-0.003906c0 0.57812-0.46484 1.0469-1.043 1.0469h-19.473c-0.57813 0-1.043-0.46875-1.043-1.0469 0-0.57422 0.46484-1.043 1.043-1.043h19.473c0.57812 0 1.043 0.46875 1.043 1.043zm0 13.566c0.003907 0.27734-0.10937 0.54297-0.30469 0.73828-0.19531 0.19531-0.46094 0.30469-0.73828 0.30469h-19.473c-0.57813 0-1.043-0.46875-1.043-1.043 0-0.57812 0.46484-1.0469 1.043-1.0469h19.473c0.57812 0 1.043 0.46875 1.043 1.0469zm0 7.1133v-0.003906c0 0.57812-0.46484 1.043-1.043 1.0469h-19.473c-0.5625-0.023437-1.0078-0.48437-1.0078-1.0469s0.44531-1.0234 1.0078-1.043h19.473c0.57812 0 1.043 0.46875 1.043 1.043zm0 13.566c0 0.57422-0.46484 1.043-1.043 1.043h-19.473c-0.57813 0-1.043-0.46875-1.043-1.043 0-0.57812 0.46484-1.0469 1.043-1.0469h19.473c0.57812 0 1.043 0.46875 1.043 1.0469zm0 7.1094c0 0.57812-0.46484 1.043-1.043 1.0469h-19.473c-0.5625-0.023438-1.0078-0.48438-1.0078-1.0469s0.44531-1.0234 1.0078-1.043h19.473c0.57812 0 1.043 0.46484 1.043 1.043zm-33.965-11.84c-3.3516 0-6.3711 2.0195-7.6562 5.1133-1.2812 3.0977-0.57422 6.6602 1.7969 9.0273 2.3672 2.3711 5.9336 3.0781 9.0273 1.7969s5.1133-4.3008 5.1133-7.6523c-0.003907-4.5742-3.7109-8.2773-8.2812-8.2852zm0 14.477v0.003906c-2.5078 0-4.7656-1.5117-5.7266-3.8281-0.96094-2.3164-0.42969-4.9805 1.3438-6.7539 1.7734-1.7734 4.4375-2.3047 6.7539-1.3438 2.3164 0.96094 3.8281 3.2188 3.8281 5.7266 0 3.4219-2.7773 6.1992-6.1992 6.1992zm7.5625-54.508-1.3672 1.4727-0.003906 0.003906c-2.9062-3.2734-7.8555-3.7266-11.309-1.0391-3.4531 2.6914-4.2227 7.5977-1.7656 11.219 2.4609 3.6211 7.3086 4.707 11.082 2.4883 3.7695-2.2227 5.1719-6.9883 3.1992-10.895l1.6953-1.8203v-0.003907c0.39062-0.42187 0.36719-1.082-0.054688-1.4766-0.42188-0.39062-1.082-0.36719-1.4766 0.054688zm-1.3672 6.9531v0.003906c0.035157 3.0547-2.1328 5.6914-5.1328 6.2461-3.0039 0.55469-5.9727-1.1367-7.0273-4-1.0547-2.8672 0.10938-6.0781 2.7539-7.6016 2.6445-1.5273 6.0039-0.92188 7.957 1.4258l-4.1758 4.4805-2.6602-2.6602c-0.41016-0.41016-1.0742-0.41016-1.4844 0-0.40625 0.41016-0.40625 1.0742 0 1.4805l3.4258 3.4258c0.19531 0.19531 0.46094 0.30859 0.73828 0.30469h0.019532c0.28516-0.003906 0.55078-0.125 0.74609-0.32812l4.4609-4.7891v-0.003907c0.23828 0.64844 0.36719 1.332 0.37891 2.0195zm1.3672 13.727-1.3672 1.4727h-0.003906c-2.9023-3.2695-7.8438-3.7227-11.293-1.0391-3.4531 2.6836-4.2266 7.5859-1.7734 11.203 2.457 3.6172 7.2969 4.707 11.066 2.4922s5.1719-6.9766 3.2031-10.883l1.6953-1.8125c0.39453-0.42187 0.37109-1.0859-0.050781-1.4766-0.42188-0.39453-1.0859-0.37109-1.4766 0.050781zm-1.3672 6.957c0.035157 3.0547-2.1328 5.6914-5.1367 6.2461-3.0039 0.55469-5.9688-1.1328-7.0234-4-1.0586-2.8672 0.10547-6.0781 2.7539-7.6016 2.6445-1.5273 6.0039-0.92578 7.957 1.4258l-4.1758 4.4805-2.6602-2.6602c-0.41016-0.41016-1.0742-0.41016-1.4844 0-0.40625 0.41016-0.40625 1.0703 0 1.4805l3.4258 3.4219v0.003906c0.19531 0.19531 0.46094 0.30469 0.73828 0.30469h0.019532c0.28516-0.003906 0.55078-0.12109 0.74609-0.32812l4.4688-4.793c0.23828 0.64844 0.35937 1.3281 0.37109 2.0195z" fill="#0079ff"/>
</svg>
