<?xml version="1.0" encoding="UTF-8"?>
<svg width="128pt" height="128pt" version="1.1" viewBox="0 0 128 128" xmlns="http://www.w3.org/2000/svg">
 <path d="m64 4.4805c-12.312 0-24.129 3.7266-34.164 10.777-0.87109 0.61328-1.0742 1.8047-0.47266 2.6758 0.61328 0.87109 1.8047 1.0742 2.6758 0.47266 8.8711-6.2344 19.211-9.6758 30.043-10.047v8.9727c-24.871 1.0117-44.801 21.555-44.801 46.668 0 1.0625 0.85938 1.9219 1.9219 1.9219h10.945c0.48828 8.5625 4.1484 16.281 9.832 21.992 0.027343 0.027344 0.027343 0.050782 0.050781 0.078126 0.027344 0.027343 0.050781 0.027343 0.078125 0.050781 6.1328 6.1055 14.594 9.8828 23.91 9.8828 9.3203 0 17.637-3.5586 24.051-9.9961 0.74219-0.75391 0.74219-1.9727 0-2.7148-0.74219-0.74219-1.9727-0.74219-2.7148 0-5.2344 5.2617-12.07 8.3438-19.406 8.8047v-8.9844c10.113-0.92188 18.188-8.9844 19.098-19.098h9c-0.12891 2.0234-0.44922 4.0195-0.97266 5.9531-0.28125 1.0234 0.33203 2.0742 1.3555 2.3555 0.16797 0.050781 0.33203 0.0625 0.5 0.0625 0.84375 0 1.625-0.5625 1.8555-1.4219 0.78125-2.8789 1.1758-5.8633 1.1758-8.8828 0-13.121-7.6797-25.191-19.57-30.746-0.96094-0.44922-2.0977-0.039062-2.5469 0.92188-0.44922 0.96094-0.039062 2.0977 0.92188 2.5469 9.957 4.6602 16.59 14.465 17.293 25.344h-10.816c-1.0625 0-1.9219 0.85938-1.9219 1.9219 0 8.8828-6.7344 16.203-15.359 17.164v-9.0742c3.6602-0.87109 6.3984-4.1602 6.3984-8.0898 0-4.582-3.7383-8.3203-8.3203-8.3203-4.582 0-8.3203 3.7383-8.3203 8.3203 0 3.9297 2.7383 7.2188 6.3984 8.0898v9.0742c-3.957-0.43359-7.5-2.2148-10.188-4.8633-0.027344-0.039063-0.039063-0.078125-0.078126-0.11328-0.039062-0.039063-0.078124-0.050782-0.11328-0.078126-3.0703-3.125-4.9805-7.3984-4.9805-12.109 0-9.5234 7.7578-17.281 17.281-17.281 5.3008 0 10.238 2.3789 13.543 6.5391 0.66406 0.83203 1.8672 0.97266 2.6992 0.30859 0.83203-0.66406 0.97266-1.8672 0.30859-2.6992-3.6367-4.5703-8.8828-7.3711-14.629-7.8867v-10.586c0-0.0625-0.011719-0.12891-0.027344-0.20312 0-0.0625 0.027344-0.12891 0.027344-0.20312 0-1.0625-0.85938-1.9219-1.9219-1.9219-18.062 0-32.859 14.184-33.855 32h-8.9727c1-22.617 19.609-40.742 42.434-40.945 0.12891 0.027344 0.26953 0.039063 0.39844 0.039063 0.12891 0 0.26953-0.011719 0.39844-0.039063 13.492 0.12891 26.266 6.6797 34.254 17.602 0.62891 0.85938 1.832 1.0352 2.6875 0.42188 0.85938-0.62891 1.0508-1.832 0.42188-2.6875-1.0508-1.4453-2.1875-2.8047-3.3789-4.1094l6.3242-6.3242c8.8828 9.5234 14.477 22.145 14.949 36.043h-8.9453c-0.17969-4.4688-0.98438-8.8438-2.418-13.055-0.34375-1-1.4336-1.5352-2.4336-1.2031-1.0117 0.34375-1.5469 1.4336-1.2031 2.4336 1.4961 4.4141 2.2539 9.0352 2.2539 13.746 0 23.641-19.238 42.879-42.879 42.879-3.4805 0-6.9492-0.42188-10.305-1.2422-1.0234-0.25781-2.0742 0.37109-2.3281 1.4062-0.25781 1.0234 0.37109 2.0742 1.4062 2.3281 3.6484 0.89453 7.4258 1.3555 11.227 1.3555 25.113 0 45.656-19.93 46.668-44.801h8.9453c-0.32031 9.4219-2.9961 18.609-7.832 26.676-0.55078 0.91016-0.25781 2.0859 0.65234 2.6367 0.30859 0.19141 0.65234 0.26953 0.98438 0.26953 0.65234 0 1.293-0.33203 1.6523-0.93359 5.5312-9.2031 8.4492-19.777 8.4492-30.578 0-32.82-26.699-59.52-59.52-59.52zm-4.4805 59.52c0-2.4688 2.0078-4.4805 4.4805-4.4805 2.4688 0 4.4805 2.0078 4.4805 4.4805 0 2.4688-2.0078 4.4805-4.4805 4.4805-2.4688 0-4.4805-2.0078-4.4805-4.4805zm2.5586 30.016c-6.8477-0.43359-13.082-3.1758-17.934-7.4492l6.3477-6.3477c3.1992 2.6758 7.207 4.4023 11.586 4.8008zm0-60.02v8.9844c-10.754 0.97266-19.199 10.023-19.199 21.02 0 5.1328 1.8438 9.8438 4.9023 13.504l-6.3477 6.3477c-4.6719-5.3008-7.5117-12.25-7.5117-19.852 0-15.938 12.469-29.02 28.16-30.016zm33.547-4.3398c-8.0898-7.4258-18.625-11.852-29.707-12.312v-8.9727c13.902 0.47266 26.523 6.0664 36.043 14.949zm10.457 73.715c0.75391 0.75391 0.75391 1.9727 0 2.7148-11.238 11.238-26.188 17.434-42.086 17.434-32.82 0-59.52-26.699-59.52-59.52 0-14.375 5.1953-28.262 14.629-39.078 0.69141-0.79297 1.9062-0.88281 2.7148-0.19141 0.79297 0.69141 0.88281 1.9062 0.19141 2.7148-8.8203 10.125-13.684 23.117-13.684 36.559 0 14.656 5.707 28.008 15 37.965l6.3242-6.3242c-4.3789-4.75-7.7578-10.395-9.8555-16.523-0.34375-1 0.19141-2.0977 1.1914-2.4336 1-0.34375 2.0977 0.19141 2.4336 1.1914 2.0977 6.1562 5.6562 11.738 10.227 16.344 0.027343 0.027344 0.050781 0.027344 0.078124 0.050782 0.027344 0.027343 0.027344 0.050781 0.050782 0.078124 2.0742 2.0625 4.3281 3.9414 6.7852 5.5547 0.88281 0.57422 1.1406 1.7656 0.55078 2.6641-0.37109 0.5625-0.98438 0.87109-1.6133 0.87109-0.35938 0-0.73047-0.10156-1.0508-0.30859-2.1758-1.4219-4.2109-3.0195-6.1055-4.7617l-6.3086 6.3086c9.957 9.293 23.297 15 37.965 15s28.852-5.7852 39.371-16.309c0.75391-0.75391 1.9727-0.75391 2.7148 0z" fill="#0079ff"/>
</svg>
