<?xml version="1.0" encoding="UTF-8"?>
<svg width="128pt" height="128pt" version="1.1" viewBox="0 0 128 128" xmlns="http://www.w3.org/2000/svg">
 <path d="m104.54 32.922v-28.656h8.5352-0.003906c1.1797 0 2.1367-0.95312 2.1367-2.1289 0-1.1797-0.95312-2.1367-2.1367-2.1367h-98.129c-1.1797 0-2.1367 0.95312-2.1367 2.1367 0 1.1758 0.95312 2.1289 2.1367 2.1289h8.5352l-0.003906 28.656c-0.019531 5.1914 1.5352 10.266 4.4688 14.551 2.9297 4.2852 7.0938 7.5742 11.941 9.4336l18.238 7.0938-18.238 7.0938c-4.8438 1.8594-9.0117 5.1484-11.941 9.4336-2.9336 4.2852-4.4883 9.3594-4.4688 14.551v28.656h-8.5312c-1.1797 0-2.1367 0.95312-2.1367 2.1289 0 1.1797 0.95312 2.1367 2.1367 2.1367h98.129c1.1797 0 2.1367-0.95312 2.1367-2.1367 0-1.1758-0.95312-2.1289-2.1367-2.1289h-8.5312v-28.656c0.019532-5.1914-1.5352-10.266-4.4688-14.551-2.9297-4.2852-7.0938-7.5742-11.941-9.4336l-18.238-7.0938 18.238-7.0938c4.8438-1.8594 9.0117-5.1484 11.941-9.4336 2.9336-4.2852 4.4883-9.3594 4.4688-14.551zm-4.2695-28.656v19.199h-72.531v-19.199zm-72.531 90.816c-0.019531-4.3281 1.2812-8.5664 3.7266-12.141 2.4453-3.5742 5.9219-6.3203 9.9648-7.8711l20.441-7.9492v12.629l-23.184 11.59c-4.4805 2.2305-8.2656 5.6406-10.945 9.8633zm72.531 28.656h-72.531v-7.7812c-0.015625-4.3203 1.1797-8.5586 3.4492-12.234 2.2734-3.6758 5.5312-6.6445 9.3984-8.5664l23.414-11.703 23.414 11.703c3.8711 1.9219 7.125 4.8906 9.3984 8.5664 2.2695 3.6758 3.4648 7.9141 3.4492 12.234zm0-28.656v6.125c-2.6797-4.2266-6.4648-7.6367-10.945-9.8633l-23.184-11.59v-12.629l20.445 7.9492h-0.003906c4.0469 1.5508 7.5195 4.2969 9.9648 7.8711 2.4453 3.5742 3.7461 7.8086 3.7266 12.141zm-36.266-33.371-22.574-8.7812c-4.0469-1.5508-7.5195-4.2969-9.9648-7.8711-2.4453-3.5742-3.7461-7.8086-3.7266-12.141v-5.1836h72.531v5.1836c0.019531 4.3281-1.2812 8.5664-3.7266 12.141-2.4453 3.5742-5.9219 6.3203-9.9648 7.8711z" fill="#0079ff"/>
</svg>
