<?xml version="1.0" encoding="UTF-8"?>
<svg width="128pt" height="128pt" version="1.1" viewBox="0 0 128 128" xmlns="http://www.w3.org/2000/svg">
 <path d="m20.781 10.566c-8.1562 0-14.777 6.6602-14.777 14.836v58.984c0 8.1758 6.6211 14.82 14.777 14.82h30.516l11.016 17.305h-0.003906c0.37109 0.57422 1.0039 0.92188 1.6836 0.92188 0.68359 0 1.3164-0.34766 1.6836-0.92188l11.012-17.305h30.531c8.1562 0 14.777-6.6445 14.777-14.82v-58.984c0-8.1758-6.6211-14.836-14.777-14.836zm0 4h86.441c6.0039 0 10.777 4.7969 10.777 10.836v58.984c0 6.0391-4.7734 10.82-10.777 10.82h-31.637c-0.68359 0.003907-1.3203 0.35156-1.6836 0.92969l-9.9062 15.59-9.9062-15.59c-0.36719-0.57812-1.0039-0.92578-1.6836-0.92969h-31.625c-6.0039 0-10.793-4.7852-10.793-10.82v-58.984c0-6.0352 4.7891-10.836 10.793-10.836zm23.887 16.906c-4.8906 0-8.9023 4.0117-8.9023 8.9023s4.0117 8.8867 8.9023 8.8867 8.9023-3.9961 8.9023-8.8867-4.0117-8.9023-8.9023-8.9023zm38.652 0c-4.8906 0-8.9023 4.0117-8.9023 8.9023s4.0117 8.8867 8.9023 8.8867c4.8906 0 8.9023-3.9961 8.9023-8.8867s-4.0117-8.9023-8.9023-8.9023zm-38.652 4c2.7305 0 4.9023 2.1758 4.9023 4.9023s-2.1719 4.8867-4.9023 4.8867-4.9023-2.1602-4.9023-4.8867 2.1719-4.9023 4.9023-4.9023zm38.652 0c2.7305 0 4.9023 2.1758 4.9023 4.9023s-2.1719 4.8867-4.9023 4.8867c-2.7305 0-4.9023-2.1602-4.9023-4.8867s2.1719-4.9023 4.9023-4.9023zm-42.105 20.27h-0.003906c-1.0977 0.003906-1.9883 0.89844-1.9922 1.9961 0 13.652 11.113 24.758 24.773 24.758 13.66 0 24.773-11.105 24.773-24.758 0-1.0977-0.89062-1.9922-1.9922-1.9961zm2.8359 3.9883h39.887c-1.1445 10.398-9.2266 18.766-19.945 18.766s-18.801-8.3672-19.945-18.766z" fill="#0079ff"/>
</svg>
