<?xml version="1.0" encoding="UTF-8"?>
<svg width="128pt" height="128pt" version="1.1" viewBox="0 0 128 128" xmlns="http://www.w3.org/2000/svg">
 <path d="m64 41.559-17.535 29.734-24.961-19.734 7.0898 43.66h70.809l7.0898-43.66-24.961 19.734zm33.281 51.164h-66.559l-5.7188-35.215 22.156 17.523 16.844-28.559 16.844 28.547 22.156-17.523z" fill="#0079ff"/>
 <path d="m64 34.863c2.9805 0 5.4141-2.4297 5.4141-5.4141 0-2.9805-2.4297-5.4141-5.4141-5.4141-2.9805 0-5.4141 2.4297-5.4141 5.4141s2.4336 5.4141 5.4141 5.4141zm0-8.3281c1.6016 0 2.9219 1.3047 2.9219 2.9219 0 1.6133-1.3047 2.9219-2.9219 2.9219-1.6133 0-2.9219-1.3047-2.9219-2.9219 0-1.6133 1.3203-2.9219 2.9219-2.9219z" fill="#0079ff"/>
 <path d="m23.629 39.859c0-2.9805-2.4297-5.4141-5.4141-5.4141s-5.4141 2.4297-5.4141 5.4141c0 2.9805 2.4297 5.4141 5.4141 5.4141 2.9805 0 5.4141-2.4336 5.4141-5.4141zm-5.4141 2.9062c-1.6016 0-2.9219-1.3047-2.9219-2.9219 0-1.6133 1.3047-2.9219 2.9219-2.9219 1.6133 0 2.9219 1.3047 2.9219 2.9219 0 1.6133-1.3203 2.9219-2.9219 2.9219z" fill="#0079ff"/>
 <path d="m109.79 34.445c-2.9805 0-5.4141 2.4297-5.4141 5.4141 0 2.9805 2.4297 5.4141 5.4141 5.4141 2.9805 0 5.4141-2.4297 5.4141-5.4141s-2.4297-5.4141-5.4141-5.4141zm0 8.3203c-1.6133 0-2.9219-1.3047-2.9219-2.9219 0-1.6133 1.3047-2.9219 2.9219-2.9219 1.6016 0 2.9219 1.3047 2.9219 2.9219 0 1.6133-1.3047 2.9219-2.9219 2.9219z" fill="#0079ff"/>
 <path d="m97.305 101.46h-66.609c-0.69141 0-1.2539 0.56641-1.2539 1.2539 0 0.69141 0.56641 1.2539 1.2539 1.2539h66.602c0.69141 0 1.2539-0.56641 1.2539-1.2539-0.003906-0.69141-0.55469-1.2539-1.2461-1.2539z" fill="#0079ff"/>
</svg>
