<?xml version="1.0" encoding="UTF-8"?>
<svg width="128pt" height="128pt" version="1.1" viewBox="0 0 128 128" xmlns="http://www.w3.org/2000/svg">
 <path d="m84.496 42.238h-3.8555v-14.078c0-9.1797-7.4609-16.641-16.641-16.641s-16.641 7.4609-16.641 16.641v14.078h-3.8555c-3.5195 0-6.3867 2.8633-6.3867 6.3867v35.855c0 3.5195 2.8633 6.3867 6.3867 6.3867h40.977c3.5195 0 6.3867-2.8633 6.3867-6.3867v-35.855c0.015624-3.5195-2.8516-6.3867-6.3711-6.3867zm-34.574-14.078c0-7.7695 6.3086-14.078 14.078-14.078s14.078 6.3086 14.078 14.078v14.078h-28.16zm38.398 56.336c0 2.1094-1.7148 3.8242-3.8242 3.8242h-40.988c-2.1094 0-3.8242-1.7148-3.8242-3.8242v-35.871c0-2.1094 1.7148-3.8242 3.8242-3.8242h40.988c2.1094 0 3.8242 1.7148 3.8242 3.8242zm-23.039 12.785v17.922c0 0.70312-0.57422 1.2812-1.2812 1.2812-0.70312 0-1.2812-0.57422-1.2812-1.2812v-17.922c0-0.70312 0.57422-1.2812 1.2812-1.2812 0.70312 0 1.2812 0.57422 1.2812 1.2812zm25.602 10.238c0 0.70312-0.57422 1.2812-1.2812 1.2812h-10.238c-0.70312 0-1.2812-0.57422-1.2812-1.2812v-10.238c0-0.70312 0.57422-1.2812 1.2812-1.2812 0.70312 0 1.2812 0.57422 1.2812 1.2812v8.9609h8.9609c0.70312 0 1.2812 0.57422 1.2812 1.2812zm-40.961-10.238v10.238c0 0.70312-0.57422 1.2812-1.2812 1.2812h-10.238c-0.70312 0-1.2812-0.57422-1.2812-1.2812 0-0.70312 0.57422-1.2812 1.2812-1.2812h8.9609v-8.9609c0-0.70312 0.57422-1.2812 1.2812-1.2812 0.70312 0 1.2812 0.57422 1.2812 1.2812zm-17.922-33.281c0 0.70312-0.57422 1.2812-1.2812 1.2812h-17.922c-0.70312 0-1.2812-0.57422-1.2812-1.2812 0-0.70312 0.57422-1.2812 1.2812-1.2812h17.922c0.70312 0 1.2812 0.57422 1.2812 1.2812zm0-15.359c0 0.70312-0.57422 1.2812-1.2812 1.2812h-10.238c-0.70312 0-1.2812-0.57422-1.2812-1.2812v-10.238c0-0.70312 0.57422-1.2812 1.2812-1.2812 0.70312 0 1.2812 0.57422 1.2812 1.2812v8.9609h8.9609c0.70312 0 1.2812 0.57422 1.2812 1.2812zm0 30.719c0 0.70312-0.57422 1.2812-1.2812 1.2812h-8.9609v8.9609c0 0.70313-0.57422 1.2812-1.2812 1.2812-0.70312 0-1.2812-0.57422-1.2812-1.2812v-10.238c0-0.70312 0.57422-1.2812 1.2812-1.2812h10.238c0.70312 0 1.2812 0.57422 1.2812 1.2812zm84.48-15.359c0 0.70312-0.57422 1.2812-1.2812 1.2812h-17.922c-0.70312 0-1.2812-0.57422-1.2812-1.2812 0-0.70312 0.57422-1.2812 1.2812-1.2812h17.922c0.70312 0 1.2812 0.57422 1.2812 1.2812zm-20.48-15.359c0-0.70312 0.57422-1.2812 1.2812-1.2812h8.9609v-8.9609c0-0.70313 0.57422-1.2812 1.2812-1.2812 0.70312 0 1.2812 0.57422 1.2812 1.2812v10.238c0 0.70312-0.57422 1.2812-1.2812 1.2812h-10.238c-0.70312 0-1.2812-0.57422-1.2812-1.2812zm12.801 30.719v10.238c0 0.70312-0.57422 1.2812-1.2812 1.2812-0.70312 0-1.2812-0.57422-1.2812-1.2812v-8.9609h-8.9609c-0.70312 0-1.2812-0.57422-1.2812-1.2812 0-0.70312 0.57422-1.2812 1.2812-1.2812h10.238c0.70312 0 1.2812 0.57422 1.2812 1.2812zm-44.801-21.762c-3.5352 0-6.3984 2.8633-6.3984 6.3984 0 3.0859 2.1992 5.6719 5.1211 6.2695v6.5312c0 0.70312 0.57422 1.2812 1.2812 1.2812 0.70312 0 1.2812-0.57422 1.2812-1.2812v-6.5312c2.9219-0.58984 5.1211-3.1758 5.1211-6.2695 0-3.5352-2.8633-6.3984-6.3984-6.3984zm0 10.238c-2.1094 0-3.8398-1.7305-3.8398-3.8398s1.7305-3.8398 3.8398-3.8398 3.8398 1.7305 3.8398 3.8398-1.7305 3.8398-3.8398 3.8398z" fill="#0079ff"/>
</svg>
