<?xml version="1.0" encoding="UTF-8"?>
<svg width="128pt" height="128pt" version="1.1" viewBox="0 0 128 128" xmlns="http://www.w3.org/2000/svg">
 <path d="m52.297 91.859h36.41c2.3906 0 4.2656 1.8828 4.2656 4.2734v10.957c0 2.3906-1.875 4.2656-4.2656 4.2656h-36.41c-2.3906 0-4.2734-1.875-4.2734-4.2656v-10.957c-0.003907-2.3906 1.8828-4.2734 4.2734-4.2734zm-3.125-75.34c2.8164-0.15625 5.6875 1.3398 6.4219 5.9336 0.27344 1.7852 2.9023 1.6055 2.9375-0.20312 0.10547-3.7188 2.9258-5.6055 5.75-5.582 1.4141 0.007812 2.7773 0.51172 3.8008 1.5938 1.0312 1.082 1.793 2.7773 1.793 5.4062 0 0.15625 0.023438 0.30469 0.066406 0.44531 0.03125 0.089844 0.074219 0.17969 0.12109 0.25781 0.050781 0.089844 0.10938 0.17188 0.17578 0.24609 0.066407 0.074218 0.13672 0.14844 0.21484 0.20703 0.035156 0.027343 0.082031 0.058593 0.11719 0.089843 0.046876 0.019532 0.089844 0.035157 0.125 0.058594 0.046876 0.023438 0.097657 0.042969 0.14063 0.058594 0.042968 0.023438 0.089843 0.03125 0.13281 0.046875 0.24609 0.066406 0.49609 0.066406 0.73438 0.011719 0.28906-0.074219 0.55469-0.23047 0.74609-0.44922 0.066406-0.074219 0.125-0.15625 0.17969-0.24609 0.125-0.21484 0.19531-0.45703 0.19922-0.70312v-0.023437c0-1.5312 0.63281-2.668 1.6602-3.5469 1.0312-0.88281 2.4922-1.4414 3.9258-1.5547 1.4453-0.10547 2.832 0.25 3.7773 0.99219 0.95703 0.73438 1.6016 1.8203 1.6016 3.7344 0 1.9688 2.9531 1.9688 2.9531 0 0-1.3867 0.47266-2.0469 1.1914-2.4688 0.71094-0.41406 1.8203-0.53516 3.0312-0.14844 2.4141 0.78516 5.125 3.4961 5.125 8.9766 0 19.445-1.3477 28.57-2.6953 34.309-1.3477 5.7422-2.8164 8.4297-2.8789 14.52v0.015625 10.652c-0.57812-0.14844-1.1836-0.24609-1.8164-0.24609h-36.41c-0.40625 0-0.80078 0.042968-1.1836 0.10938v-4.8086-0.13281c-0.10938-1.2422-0.79297-2.1328-1.6133-3.1133-0.83203-0.98438-1.8867-2.0156-3.1016-3.1406-2.4141-2.2578-5.4141-4.9102-8.0273-7.875-2.6172-2.9727-4.8281-6.2461-5.7695-9.6758-0.94922-3.4219-0.73438-6.9922 1.6758-11.016l-0.17969 0.24609c1.0742-1.1836 1.4297-2.7031 1.7266-4.2539 0.29688-1.5469 0.49609-3.1836 0.82813-4.6367 0.33594-1.4609 0.81641-2.6875 1.5-3.4688 0.5625-0.63672 1.2656-1.0586 2.4297-1.1992l-0.074219 11.461c-0.066406 0.85156 0.60547 1.5781 1.4648 1.5859 0.85156 0.007813 1.5352-0.71094 1.4805-1.5703l0.17969-25.371c0.12109-3.4648 2.7266-5.375 5.543-5.5234zm-0.16406-2.9492c-4.1484 0.22266-8.1641 3.4062-8.3477 8.3789v0.035156l-0.066406 10.992c-2 0.17578-3.5898 1.0078-4.6641 2.2227-1.207 1.3711-1.7852 3.0781-2.1719 4.7578-0.38672 1.6758-0.57031 3.3555-0.83594 4.7422-0.26562 1.3945-0.66016 2.4375-1.0156 2.8242-0.066406 0.074218-0.125 0.14844-0.17578 0.23828-2.7773 4.6367-3.1172 9.2227-1.9922 13.312 1.1328 4.0859 3.6367 7.6953 6.4141 10.844 2.7773 3.1484 5.8516 5.8594 8.2227 8.0742 1.1758 1.1016 2.1914 2.0781 2.8672 2.8711 0.66797 0.80078 0.91797 1.4453 0.92578 1.4805v5.8906c-1.8672 1.3047-3.1055 3.4609-3.1055 5.9023v10.957c0 3.9766 3.2578 7.2227 7.2344 7.2227h36.41c3.9766 0 7.2227-3.2461 7.2227-7.2227v-10.957c0-2.1523-0.97266-4.0742-2.4766-5.3984 0.023437-0.097656 0.03125-0.19531 0.03125-0.29297v-11.953c0.066406-5.6133 1.3867-7.8594 2.793-13.844 1.4062-5.9922 2.7852-15.414 2.7852-34.992 0-6.4961-3.4453-10.578-7.1875-11.793-1.8672-0.60156-3.8281-0.52344-5.4219 0.40625-0.63672 0.37891-0.62891 1.375-1.0664 2.0078-0.47266-1.0352-0.55078-2.4219-1.3867-3.0664-1.6523-1.2812-3.7539-1.7344-5.793-1.5859-2.0352 0.14844-4.0664 0.89844-5.6523 2.2539-0.58594 0.50391-0.57813 1.4805-1 2.1602-0.45313-1.2891-0.51172-2.9453-1.3359-3.8125-1.6133-1.6953-3.7852-2.5078-5.9102-2.5195-3.2227-0.019531-5.8867 2.2617-7.3555 5.4297-1.7734-3.5039-4.7109-5.7422-7.9453-5.5664z" fill="#0079ff"/>
</svg>
