<?xml version="1.0" encoding="UTF-8"?>
<svg width="128pt" height="128pt" version="1.1" viewBox="0 0 128 128" xmlns="http://www.w3.org/2000/svg">
 <path d="m104.07 25.648h-18.055c-0.72656 0-1.3164 0.58984-1.3164 1.3164 0 0.73047 0.58984 1.3203 1.3164 1.3203h18.055c2.9062 0 5.2695 2.3633 5.2695 5.2695v80.141c0 2.9062-2.3672 5.2695-5.2695 5.2695h-80.141c-2.9062 0-5.2695-2.3633-5.2695-5.2695v-80.141c0-2.9062 2.3633-5.2695 5.2695-5.2695h17.844c0.72656 0 1.3164-0.58984 1.3164-1.3203 0-0.72656-0.58984-1.3164-1.3164-1.3164h-17.844c-4.3594 0-7.9062 3.5469-7.9062 7.9062v80.141c0 4.3594 3.5469 7.9062 7.9062 7.9062h80.137c4.3594 0 7.9062-3.5469 7.9062-7.9062v-80.141c0.003906-4.3633-3.543-7.9062-7.9023-7.9062z" fill="#0079ff"/>
 <path d="m64.188 90.297 18.09-18.094c0.51562-0.51562 0.51562-1.3477 0-1.8633s-1.3477-0.51562-1.8633 0l-14.977 14.98v-77.602c0-0.73047-0.58984-1.3203-1.3164-1.3203-0.72656 0-1.3203 0.58984-1.3203 1.3164v77.465l-14.98-14.977c-0.51172-0.51172-1.3477-0.51172-1.8633 0-0.51172 0.51562-0.51172 1.3477 0 1.8633z" fill="#0079ff"/>
</svg>
