<?xml version="1.0" encoding="UTF-8"?>
<svg width="128pt" height="128pt" version="1.1" viewBox="0 0 128 128" xmlns="http://www.w3.org/2000/svg">
 <path d="m28.93 83.164v-69.719c0-0.9375 0.76172-1.7031 1.7031-1.7031h7.7305v-7.7266c-0.003906-0.45312 0.17578-0.88672 0.49609-1.207 0.32031-0.32031 0.75391-0.5 1.2031-0.5h80.273c0.94141 0 1.7031 0.76562 1.7031 1.707v83.215c5.3867 5.9609 7.2734 14.301 4.9805 21.996-2.293 7.6992-8.4336 13.645-16.203 15.691-7.7656 2.043-16.039-0.11328-21.824-5.6875h-58.367c-0.9375-0.003907-1.6953-0.76172-1.6953-1.6992v-9.4375l-15.094 5.9531c-2.6445 1.0312-5.625-0.26953-6.668-2.9102l-1.9844-5.0234c-1.0273-2.6445 0.26953-5.6211 2.9062-6.6719l1.9258-0.76172-0.75391-1.9102c-1.0938-2.8008 0.28516-5.9609 3.0781-7.0664l2.5586-1.0078-13.582-24.055-0.50391-1.0781c-2.3711-6.0039 0.70703-13.121 6.5547-14.922 5.6328-1.7266 12.098 1.8125 13.953 7.8398 0.011719 0.03125 0.019532 0.066406 0.027344 0.10156l6.5156 27.008 1.0664-0.41797zm63.926 22.113 6.3438 6.3438c0.32031 0.32031 0.75391 0.5 1.207 0.5 0.44922 0 0.88281-0.17969 1.2031-0.5l15.488-15.488c0.66406-0.66406 0.66406-1.7422-0.003906-2.4062-0.66406-0.66406-1.7422-0.66406-2.4062 0l-14.281 14.285-5.1406-5.1445c-0.66797-0.64453-1.7305-0.63281-2.3867 0.023437s-0.66797 1.7188-0.023437 2.3867zm25.777-21.129v-78.434h-76.871v6.0273h54.453c0.45703 0 0.89844 0.1875 1.2188 0.51562l14.668 14.664c0.33203 0.32422 0.51563 0.76953 0.51172 1.2344v52.801c2.1562 0.75781 4.1875 1.832 6.0273 3.1914zm-9.4336-4.0977v-50.211h-12.984c-0.94141-0.003906-1.7031-0.76562-1.7031-1.7031v-12.988h-62.184v67.047c2.2734-0.03125 4.3281 1.3438 5.1641 3.457l0.75 1.9023 1.9375-0.76953c2.6445-1.0312 5.625 0.26953 6.668 2.9062l1.9844 5.0273c0.49609 1.2695 0.46875 2.6836-0.078125 3.9297-0.54297 1.2539-1.5586 2.2383-2.8281 2.7383l-13.598 5.3672v9.0742h53.762c-3.5-5.0273-4.8516-11.238-3.7578-17.266 1.0977-6.0234 4.5469-11.363 9.5859-14.84 5.043-3.4727 11.262-4.7969 17.281-3.6758zm9.6406 8.7617 0.003906 0.003906c-3.6797-3.6797-8.6641-5.7461-13.867-5.7461-5.1992 0-10.188 2.0664-13.863 5.7461-3.6797 3.6758-5.7422 8.6641-5.7422 13.863 0 5.1992 2.0625 10.188 5.7422 13.867 3.6758 3.6758 8.6641 5.7422 13.863 5.7422 5.2031 0 10.188-2.0664 13.867-5.7422 3.6758-3.6797 5.7422-8.668 5.7422-13.867 0-5.1992-2.0664-10.188-5.7422-13.863zm-109.48-33.172c-1.125 0.44141-1.9531 1.418-2.2109 2.5977-0.25391 1.1836 0.097657 2.4102 0.9375 3.2812 0.83984 0.86719 2.0547 1.2617 3.2461 1.0469 1.1875-0.21875 2.1914-1.0117 2.6719-2.1211 0.58203-1.3398 0.30078-2.9023-0.71875-3.9531-1.0156-1.0547-2.5664-1.3906-3.9258-0.85156zm25.727 33.152-0.75391-1.9102c-0.41797-1.0508-1.6055-1.5664-2.6602-1.1523-4.4023 1.8398-8.9258 3.4844-13.383 5.2344l-0.68359 0.26562c-1.3477 0.53125-2.6914 1.0781-4.0234 1.6367-1.0508 0.42187-1.5664 1.6094-1.1523 2.6602l0.75 1.9023 21.895-8.6328zm-22.234 12.414-3.5234 1.3984c-0.89062 0.35547-1.3281 1.3672-0.97266 2.2617l1.9844 5.0312h-0.003907c0.35938 0.89453 1.3711 1.3281 2.2656 0.97656l32.09-12.652c0.42969-0.16797 0.77344-0.50391 0.95312-0.92578 0.18359-0.42578 0.19141-0.91016 0.019531-1.3398l-2.0117-5.0977c-0.375-0.81641-1.3086-1.2188-2.1602-0.93359l-28.645 11.293zm5.2383-13.77 6.582-2.5977-6.6094-27.391c-0.6875-2.1875-2.2383-3.9961-4.2969-5.0039-1.7812-1-3.918-1.1445-5.8203-0.39453-1.8984 0.75-3.3633 2.3125-3.9883 4.2578-0.82812 2.168-0.71484 4.5859 0.3125 6.668l13.824 24.461zm34.098-5.5664h37.16c0.94141 0 1.7031-0.76562 1.7031-1.7031 0-0.94141-0.76172-1.707-1.7031-1.707h-37.16c-0.94141 0-1.7031 0.76562-1.7031 1.707 0 0.9375 0.76172 1.7031 1.7031 1.7031zm1.8125-15.824h33.535c0.45703 0.015625 0.90234-0.16016 1.2344-0.48047 0.32812-0.32031 0.51562-0.76172 0.51562-1.2227 0-0.45703-0.1875-0.89844-0.51562-1.2188-0.33203-0.32031-0.77734-0.49609-1.2344-0.48438h-33.535c-0.46094-0.011719-0.90625 0.16406-1.2383 0.48438-0.32812 0.32031-0.51562 0.76172-0.51562 1.2188 0 0.46094 0.1875 0.90234 0.51562 1.2227 0.33203 0.32031 0.77734 0.49609 1.2383 0.48047zm-2.9258-15.828h39.391c0.46094 0.011719 0.90625-0.16016 1.2383-0.48438 0.32812-0.32031 0.51562-0.75781 0.51562-1.2188s-0.1875-0.90234-0.51562-1.2227c-0.33203-0.32031-0.77734-0.49219-1.2383-0.48047h-39.391c-0.45703-0.011719-0.90234 0.16016-1.2344 0.48047-0.32813 0.32031-0.51563 0.76172-0.51563 1.2227s0.1875 0.89844 0.51563 1.2188c0.33203 0.32422 0.77734 0.49609 1.2344 0.48438zm-8.207-18.32h47.797c0.92188-0.027344 1.6562-0.78125 1.6562-1.7031 0-0.92187-0.73438-1.6797-1.6562-1.7031h-47.797c-0.46094-0.011719-0.90625 0.16016-1.2344 0.48047-0.32812 0.32031-0.51562 0.76172-0.51562 1.2227 0 0.46094 0.1875 0.89844 0.51562 1.2188 0.32812 0.32422 0.77344 0.49609 1.2344 0.48438zm63.93-5.4648-8.8711-8.875v8.875z" fill="#0079ff" fill-rule="evenodd"/>
</svg>
