<svg width="18" height="18" viewBox="0 0 18 18" fill="none" xmlns="http://www.w3.org/2000/svg">
<path d="M13.1667 8.16667V5.66667C13.1667 3.36548 11.3012 1.5 9 1.5C6.69881 1.5 4.83333 3.36548 4.83333 5.66667V8.16667M5.5 16.5H12.5C13.9001 16.5 14.6002 16.5 15.135 16.2275C15.6054 15.9878 15.9878 15.6054 16.2275 15.135C16.5 14.6002 16.5 13.9001 16.5 12.5V12.1667C16.5 10.7665 16.5 10.0665 16.2275 9.53169C15.9878 9.06128 15.6054 8.67883 15.135 8.43915C14.6002 8.16667 13.9001 8.16667 12.5 8.16667H5.5C4.09987 8.16667 3.3998 8.16667 2.86502 8.43915C2.39462 8.67883 2.01217 9.06128 1.77248 9.53169C1.5 10.0665 1.5 10.7665 1.5 12.1667V12.5C1.5 13.9001 1.5 14.6002 1.77248 15.135C2.01217 15.6054 2.39462 15.9878 2.86502 16.2275C3.3998 16.5 4.09987 16.5 5.5 16.5Z" stroke="#68D513" stroke-width="2" stroke-linecap="round" stroke-linejoin="round"/>
</svg>
