<svg width="15" height="19" viewBox="0 0 15 19" fill="none" xmlns="http://www.w3.org/2000/svg">
<path d="M5.12508 9.10417L6.70841 10.6875L10.2709 7.125M13.8334 9.5C13.8334 13.3859 9.59486 16.2121 8.05266 17.1118C7.87739 17.214 7.78975 17.2652 7.66608 17.2917C7.5701 17.3123 7.43006 17.3123 7.33408 17.2917C7.21041 17.2652 7.12277 17.214 6.94751 17.1118C5.4053 16.2121 1.16675 13.3859 1.16675 9.5V5.71394C1.16675 5.08099 1.16675 4.76452 1.27027 4.49248C1.36172 4.25215 1.51032 4.03772 1.70323 3.86771C1.9216 3.67527 2.21792 3.56414 2.81057 3.3419L7.05532 1.75012C7.21991 1.6884 7.3022 1.65754 7.38686 1.64531C7.46195 1.63446 7.53821 1.63446 7.6133 1.64531C7.69796 1.65754 7.78025 1.6884 7.94484 1.75012L12.1896 3.3419C12.7822 3.56414 13.0786 3.67527 13.2969 3.86771C13.4898 4.03772 13.6384 4.25215 13.7299 4.49248C13.8334 4.76452 13.8334 5.08099 13.8334 5.71394V9.5Z" stroke="#292929" stroke-width="1.5" stroke-linecap="round" stroke-linejoin="round"/>
</svg>
